<svg xmlns="http://www.w3.org/2000/svg" xmlns:xlink="http://www.w3.org/1999/xlink" width="366.678" height="320" viewBox="0 0 366.678 320"><defs><clipPath id="a"><rect width="366.678" height="320" fill="none"/></clipPath></defs><rect width="34.589" height="0.446" transform="translate(107.202 184.27)" fill="#d12119"/><g clip-path="url(#a)"><path d="M643.444,285.86h0c23.751,0,43,20.722,43,46.285v52.808h-43Z" transform="translate(-319.77 -142.063)" fill="#f18700"/><path d="M165.976,400.776v-33.57H123.755v51.932h60.583a18.362,18.362,0,0,1-18.362-18.362" transform="translate(-61.502 -182.489)" fill="#671130"/><path d="M62.253,419.138H18.363A18.363,18.363,0,0,1,0,400.774V367.205H62.253Z" transform="translate(0 -182.489)" fill="#f18700"/><path d="M440.216,59.734H472.26a21.082,21.082,0,0,1,21.083,21.083v31.615H440.216Z" transform="translate(-218.773 -29.686)" fill="#9b9b9b"/><path d="M396.125,34.737H351.5V9.434h30.921a13.708,13.708,0,0,1,13.708,13.708Z" transform="translate(-174.682 -4.688)" fill="#f7ca19"/><path d="M654.418,141.669h0a12.651,12.651,0,1,1,12.651-12.651,12.651,12.651,0,0,1-12.651,12.651" transform="translate(-318.937 -57.83)" fill="#d12119"/><rect width="14.869" height="14.869" transform="translate(308.804 41.48)" fill="#028ed5"/><rect width="29.451" height="29.451" transform="translate(32.802 155.266)" fill="#d12119"/><path d="M39.737,60.406h8.491a9.433,9.433,0,0,1,3.259.523,6.367,6.367,0,0,1,2.355,1.452A5.085,5.085,0,0,1,54.971,64.1a5.8,5.8,0,0,1,.4,2.172v.056a5.854,5.854,0,0,1-.4,2.214,5.071,5.071,0,0,1-1.115,1.693,6.013,6.013,0,0,1-1.707,1.185,8.268,8.268,0,0,1-2.144.662l6.066,8.068H53.335L47.608,72.48H41.965v7.673H39.737Zm8.31,10.072a7.027,7.027,0,0,0,2.036-.282,4.993,4.993,0,0,0,1.613-.8,3.612,3.612,0,0,0,1.441-2.976v-.056A3.419,3.419,0,0,0,51.808,63.5a5.974,5.974,0,0,0-3.733-1.03H41.965v8.012Z" transform="translate(-19.748 -30.02)" fill="#7b2183"/><path d="M85.785,80.159a10.036,10.036,0,0,1-4.1-.818,9.713,9.713,0,0,1-5.219-5.459A10.6,10.6,0,0,1,75.742,70v-.056a10.54,10.54,0,0,1,.733-3.893,10.242,10.242,0,0,1,13.471-5.5,9.717,9.717,0,0,1,5.219,5.459,10.606,10.606,0,0,1,.72,3.879.035.035,0,0,1,0,.056,10.526,10.526,0,0,1-.734,3.893,9.882,9.882,0,0,1-9.365,6.32m.057-2.059a7.586,7.586,0,0,0,3.117-.635,7.376,7.376,0,0,0,2.44-1.735,8.175,8.175,0,0,0,1.594-2.567A8.558,8.558,0,0,0,93.571,70v-.056a8.671,8.671,0,0,0-.577-3.174A7.771,7.771,0,0,0,88.9,62.442a7.431,7.431,0,0,0-3.117-.648,7.567,7.567,0,0,0-3.117.635,7.321,7.321,0,0,0-2.44,1.735,8.136,8.136,0,0,0-1.595,2.566,8.536,8.536,0,0,0-.578,3.16v.056a8.642,8.642,0,0,0,.578,3.174,7.772,7.772,0,0,0,4.091,4.33,7.413,7.413,0,0,0,3.117.649" transform="translate(-37.641 -29.686)" fill="#7b2183"/><path d="M127.978,60.126h2.087l9,19.888h-2.4L134.353,74.8H123.6l-2.341,5.219h-2.285Zm5.5,12.667-4.486-10.072-4.514,10.072Z" transform="translate(-59.129 -29.881)" fill="#7b2183"/><path d="M163.843,60.406H170.7a11.68,11.68,0,0,1,4.246.748,10.028,10.028,0,0,1,3.329,2.074,9.233,9.233,0,0,1,2.159,3.117,9.816,9.816,0,0,1,.761,3.879v.057a9.917,9.917,0,0,1-.761,3.893,9.2,9.2,0,0,1-2.159,3.131,10.216,10.216,0,0,1-3.329,2.088,11.474,11.474,0,0,1-4.246.762h-6.856ZM170.7,78.094a9.275,9.275,0,0,0,3.385-.593,7.491,7.491,0,0,0,2.582-1.636A7.261,7.261,0,0,0,178.3,73.4a8.059,8.059,0,0,0,.578-3.06V70.28a8.071,8.071,0,0,0-.578-3.061,7.415,7.415,0,0,0-1.635-2.482,7.56,7.56,0,0,0-2.582-1.665,9.09,9.09,0,0,0-3.385-.607h-4.627V78.094Z" transform="translate(-81.425 -30.02)" fill="#7b2183"/><path d="M130.319,113.019h-6.63V110.96h15.488v2.059h-6.63v17.688h-2.228Z" transform="translate(-61.469 -55.143)" fill="#7b2183"/><path d="M168.335,130.713a10.036,10.036,0,0,1-4.1-.818,9.713,9.713,0,0,1-5.219-5.459,10.6,10.6,0,0,1-.72-3.879V120.5a10.54,10.54,0,0,1,.733-3.893,10.242,10.242,0,0,1,13.471-5.5,9.717,9.717,0,0,1,5.219,5.459,10.606,10.606,0,0,1,.72,3.879.035.035,0,0,1,0,.056,10.527,10.527,0,0,1-.734,3.893,9.882,9.882,0,0,1-9.365,6.32m.057-2.059a7.578,7.578,0,0,0,3.117-.635,7.376,7.376,0,0,0,2.44-1.735,8.175,8.175,0,0,0,1.594-2.567,8.558,8.558,0,0,0,.577-3.16V120.5a8.671,8.671,0,0,0-.577-3.174A7.771,7.771,0,0,0,171.452,113a7.431,7.431,0,0,0-3.117-.648,7.569,7.569,0,0,0-3.117.635,7.322,7.322,0,0,0-2.44,1.735,8.136,8.136,0,0,0-1.595,2.566,8.536,8.536,0,0,0-.578,3.16v.056a8.643,8.643,0,0,0,.578,3.174,7.768,7.768,0,0,0,4.091,4.33,7.413,7.413,0,0,0,3.117.649" transform="translate(-78.666 -54.809)" fill="#7b2183"/><path d="M189.346,0h6.479V17.5h-17.5V11.019A11.019,11.019,0,0,1,189.346,0" transform="translate(-88.623)" fill="#f18700"/><rect width="5.738" height="0.447" transform="translate(176.814 184.27)" fill="#028ed5"/><path d="M227.165,239.019a238.926,238.926,0,0,1-18.518,20.531c7.044-.4,16.706-.6,26.367-.6h10.467V245.058c0-8.253.2-23.751.6-30.394-3.824,5.837-7.648,10.869-16.907,21.94Z" transform="translate(-103.691 -106.681)" fill="#028ed5"/><path d="M203.293,266.017H123.786V237.434l63.508-72.942H146.369a22.615,22.615,0,0,0-22.615,22.615v79.356h79.539Z" transform="translate(-61.502 -81.747)" fill="#028ed5"/><path d="M32.391,293.969h0a7.435,7.435,0,1,1,7.435-7.435,7.434,7.434,0,0,1-7.435,7.435" transform="translate(-12.403 -138.703)" fill="#d12119"/><path d="M365.1,193.993h31.02v-29.5H351.5v69.521H365.1Z" transform="translate(-174.682 -81.747)" fill="#76b743"/><path d="M560.733,223.138v15.1A16.486,16.486,0,0,1,545.05,254.7h49.495V223.138Z" transform="translate(-270.872 -110.892)" fill="#f7ca19"/><path d="M493.607,285.822h-.28c-.273.014-.542.041-.817.041H440.972v19.406c7.8-3.8,15-6.2,29-6.2,30.2,0,50,15.2,50,46.414,0,17.064-6.364,30.506-18.124,39.452h40.972V285.85h-49.5c.1-.005.186-.022.28-.028" transform="translate(-219.148 -142.044)" fill="#028ed5"/><path d="M527.9,164.492H440.216v29.465h102.23V179.047A14.553,14.553,0,0,0,527.9,164.492" transform="translate(-218.773 -81.747)" fill="#d12119"/><path d="M231.7,112.431l12.375-14.213h38.646v14.213h44.629v-52.7H213.112v52.7Z" transform="translate(-105.91 -29.685)" fill="#7b2183"/><path d="M432.751,370.1c-11.8,0-18.8,3-25.8,8l-28.4-11.779v26.167c13.4,8,30.652,13.99,45.652,13.99,18,0,27.349-8.778,27.349-19.978,0-10.8-6.8-16.4-18.8-16.4" transform="translate(-188.127 -182.047)" fill="#f18700"/><path d="M384.855,421.929c-.3-.16-.6-.317-.89-.48.293.162.594.319.89.48" transform="translate(-190.818 -209.446)" fill="#028ed5"/><path d="M390.64,424.985c-.354-.178-.711-.353-1.061-.534.351.181.707.356,1.061.534" transform="translate(-193.608 -210.938)" fill="#028ed5"/><path d="M280.028,366.317v25.16H260.064A15.06,15.06,0,0,1,245,376.417v-10.1H207.687v34.017A18.362,18.362,0,0,0,226.049,418.7h67.588V366.317Z" transform="translate(-103.214 -182.047)" fill="#028ed5"/><path d="M396.493,427.853c-.372-.173-.744-.345-1.112-.521.369.177.74.348,1.112.521" transform="translate(-196.491 -212.37)" fill="#028ed5"/><path d="M428.266,439.868l.008,0-.008,0" transform="translate(-212.834 -218.6)" fill="#028ed5"/><path d="M421.281,437.719c-.25-.081-.5-.168-.747-.25.25.082.5.17.747.25" transform="translate(-208.991 -217.408)" fill="#028ed5"/><path d="M414.834,435.494c-.327-.117-.652-.239-.978-.36.326.121.651.243.978.36" transform="translate(-205.673 -216.247)" fill="#028ed5"/><path d="M402.474,430.563q-.559-.24-1.115-.484.555.245,1.115.484" transform="translate(-199.462 -213.735)" fill="#028ed5"/><path d="M408.584,433.112c-.362-.142-.721-.288-1.082-.434.36.146.719.291,1.082.434" transform="translate(-202.515 -215.027)" fill="#028ed5"/><path d="M451.552,386.5c0-10.8-6.8-16.4-18.8-16.4-11.8,0-18.8,3-25.8,8l-28.4-11.779v26.167c13.4,8,30.653,13.99,45.652,13.99,18,0,27.349-8.778,27.349-19.978" transform="translate(-188.127 -182.047)" fill="#d12119"/><path d="M493.495,285.86c-.328.02-.653.05-.985.05H440.972v19.4c7.8-3.8,15-6.2,29-6.2a65.58,65.58,0,0,1,23.745,3.994V285.86Z" transform="translate(-219.148 -142.063)" fill="#d12119"/><path d="M36.927,578.747c0,8.589-5.224,13.574-15.795,13.574H.952V550.279h20.3c10.452,0,14.715,3.9,14.715,10.931,0,4.564-2.221,6.607-5.044,8.228,3.783,1.621,6,4.564,6,9.309M24.555,562.771c0-1.861-.9-3.3-3.664-3.3H12.123v6.607h8.768c2.7,0,3.664-1.32,3.664-3.3m.961,16.217c0-2.463-1.381-4.025-4.144-4.025H12.123v8.169h9.188c2.883,0,4.2-1.742,4.2-4.144" transform="translate(-0.473 -273.47)" fill="#7b2183"/><rect width="11.892" height="42.041" transform="translate(40.841 276.809)" fill="#7b2183"/><path d="M153.292,592.32H143.8l-10.029-13.874c-1.863-2.582-5.466-7.988-6.547-9.849.3,1.861.36,7.447.36,10.871V592.32H116.415V550.279h10.27l9.249,12.432c1.923,2.583,5.646,8.168,6.546,9.91-.3-1.863-.36-7.447-.36-10.871V550.279h11.171Z" transform="translate(-57.854 -273.47)" fill="#7b2183"/><path d="M237.113,574.362c0,13.334-7.988,18.619-18.558,18.619s-18.318-5.285-18.318-18.619V550.279h11.892v24.083c0,5.166,2.042,8.349,6.607,8.349s6.487-3.183,6.487-8.349V550.279h11.892Z" transform="translate(-99.511 -273.47)" fill="#7b2183"/><path d="M315.908,578.756c0,9.609-7.267,13.573-17.358,13.573a33.506,33.506,0,0,1-17.717-5.1l5.645-9.13c3.063,2.1,8.408,4.205,12.312,4.205,4.144,0,5.466-.722,5.466-2.7,0-1.562-1.5-2.523-7.148-3.844-10.15-2.343-15.015-5.1-15.015-13.514,0-7.928,6.427-13.273,16.576-13.273,7.148,0,12.313,1.741,16.758,4.864l-5.646,9.13A20.355,20.355,0,0,0,298.07,559c-3.484,0-4.324,1.08-4.324,2.582,0,1.562,1.5,2.283,6.907,3.543,10.571,2.523,15.255,5.766,15.255,13.634" transform="translate(-139.565 -272.818)" fill="#7b2183"/><path d="M192.92,512.953l-6.93-10.57H189.6l4.885,7.728,4.936-7.728h3.515l-6.93,10.495v6.955H192.92Z" transform="translate(-92.431 -249.668)" fill="#7b2183"/><path d="M222.561,502.383h12.912v2.767H225.6v4.487h8.75V512.4H225.6v4.662h10v2.767H222.561Z" transform="translate(-110.606 -249.668)" fill="#7b2183"/><path d="M257.989,502.136h2.842l7.678,17.574h-3.241L263.5,515.5h-8.251l-1.794,4.213h-3.141Zm4.387,10.644-3.016-6.98-2.992,6.98Z" transform="translate(-124.397 -249.545)" fill="#7b2183"/><path d="M289.955,502.384h7.777a8.531,8.531,0,0,1,2.917.461,5.863,5.863,0,0,1,2.119,1.284,5.059,5.059,0,0,1,1.071,1.67,5.664,5.664,0,0,1,.374,2.094v.05a5.65,5.65,0,0,1-.311,1.932,5.055,5.055,0,0,1-.86,1.521,5.159,5.159,0,0,1-1.309,1.122,6.5,6.5,0,0,1-1.683.71l4.711,6.606h-3.615l-4.3-6.082H293v6.082h-3.041Zm7.542,8.65a4.053,4.053,0,0,0,2.625-.789,2.606,2.606,0,0,0,.975-2.14v-.05a2.576,2.576,0,0,0-.95-2.166,4.27,4.27,0,0,0-2.676-.738H293v5.883Z" transform="translate(-144.098 -249.668)" fill="#7b2183"/><path d="M328.3,519.836a11.009,11.009,0,0,1-3.864-.686,10.551,10.551,0,0,1-3.415-2.106l1.845-2.194a10.7,10.7,0,0,0,2.568,1.683,7.073,7.073,0,0,0,2.942.586,3.8,3.8,0,0,0,2.256-.6,1.868,1.868,0,0,0,.835-1.6v-.05a2.018,2.018,0,0,0-.162-.836,1.81,1.81,0,0,0-.6-.686,4.739,4.739,0,0,0-1.2-.6,17.192,17.192,0,0,0-1.986-.548,19.471,19.471,0,0,1-2.486-.735,6.757,6.757,0,0,1-1.825-1,3.844,3.844,0,0,1-1.125-1.434A4.885,4.885,0,0,1,321.7,507v-.05a4.7,4.7,0,0,1,1.669-3.652,5.724,5.724,0,0,1,1.873-1.035,7.363,7.363,0,0,1,2.391-.374,10,10,0,0,1,3.452.561,10.271,10.271,0,0,1,2.879,1.633l-1.645,2.318a10.685,10.685,0,0,0-2.368-1.334,6.423,6.423,0,0,0-2.368-.461,3.276,3.276,0,0,0-2.094.6,1.819,1.819,0,0,0-.747,1.471v.05a2.12,2.12,0,0,0,.175.885,1.722,1.722,0,0,0,.637.7,5.408,5.408,0,0,0,1.274.586q.813.275,2.062.573a19.747,19.747,0,0,1,2.437.773,6.094,6.094,0,0,1,1.762,1.035,4.088,4.088,0,0,1,1.062,1.421,4.576,4.576,0,0,1,.363,1.882v.05a5.089,5.089,0,0,1-.458,2.194,4.693,4.693,0,0,1-1.273,1.645,5.614,5.614,0,0,1-1.96,1.022,8.6,8.6,0,0,1-2.516.349" transform="translate(-159.539 -249.422)" fill="#7b2183"/><path d="M382.169,514.742a8.531,8.531,0,0,1,0-10.956,6.81,6.81,0,0,1,5.251-2.156,7.039,7.039,0,0,1,4.539,1.485,6.644,6.644,0,0,1,2.373,3.982h-1.589a5,5,0,0,0-1.878-2.95,5.545,5.545,0,0,0-3.445-1.094,5.3,5.3,0,0,0-4.116,1.712,7.272,7.272,0,0,0,0,9,5.3,5.3,0,0,0,4.116,1.712,5.539,5.539,0,0,0,3.445-1.094,5,5,0,0,0,1.878-2.95h1.589a6.643,6.643,0,0,1-2.373,3.982,7.036,7.036,0,0,1-4.539,1.485,6.806,6.806,0,0,1-5.251-2.156" transform="translate(-188.936 -249.293)" fill="#7b2183"/><path d="M424.625,503.817a8.192,8.192,0,0,1,0,10.894,7.749,7.749,0,0,1-10.791,0,8.191,8.191,0,0,1,0-10.894,7.748,7.748,0,0,1,10.791,0m-9.625.969a6.834,6.834,0,0,0,0,8.955,6.03,6.03,0,0,0,8.46,0,6.834,6.834,0,0,0,0-8.955,6.028,6.028,0,0,0-8.46,0" transform="translate(-204.632 -249.293)" fill="#7b2183"/><rect width="6.355" height="1.382" transform="translate(224.048 261.353)" fill="#7b2183"/><path d="M463.955,514.742a8.531,8.531,0,0,1,0-10.956,6.81,6.81,0,0,1,5.251-2.156,7.039,7.039,0,0,1,4.539,1.485,6.644,6.644,0,0,1,2.373,3.982h-1.589a5,5,0,0,0-1.878-2.95,5.545,5.545,0,0,0-3.445-1.094,5.3,5.3,0,0,0-4.116,1.712,7.272,7.272,0,0,0,0,9,5.3,5.3,0,0,0,4.116,1.712,5.539,5.539,0,0,0,3.445-1.094,5,5,0,0,0,1.878-2.95h1.589a6.643,6.643,0,0,1-2.373,3.982,7.036,7.036,0,0,1-4.539,1.485,6.806,6.806,0,0,1-5.251-2.156" transform="translate(-229.581 -249.293)" fill="#7b2183"/><path d="M507.067,516.894h-1.816l-3.446-6.375h-4.291v6.375h-1.506V502.245h6.024a4.867,4.867,0,0,1,3.539,1.146,3.991,3.991,0,0,1,1.166,2.981,4.133,4.133,0,0,1-.836,2.62,3.96,3.96,0,0,1-2.528,1.382Zm-1.9-10.523a2.553,2.553,0,0,0-.774-1.96,3.264,3.264,0,0,0-2.3-.722h-4.581v5.385h4.581a3.291,3.291,0,0,0,2.3-.712,2.571,2.571,0,0,0,.774-1.991" transform="translate(-246.5 -249.599)" fill="#7b2183"/><path d="M533.412,515.471v1.424H523.57V502.245h9.842v1.424h-8.336v5.075h7.9v1.424h-7.9v5.3Z" transform="translate(-260.197 -249.599)" fill="#7b2183"/><path d="M547.287,516.894h-1.61l6.025-14.649h1.63l6.045,14.649h-1.671l-1.383-3.426h-7.646Zm5.243-12.814-.041,0-3.242,7.984h6.509Z" transform="translate(-271.183 -249.599)" fill="#7b2183"/><path d="M581.612,502.245v1.444h-4.684v13.205h-1.506V503.689h-4.683v-1.444Z" transform="translate(-283.638 -249.599)" fill="#7b2183"/><rect width="1.507" height="14.649" transform="translate(300.243 252.646)" fill="#7b2183"/><path d="M609.692,504.674v12.22h-1.507V502.245h1.573l8.557,12.278V502.245h1.507v14.649h-1.589Z" transform="translate(-302.248 -249.599)" fill="#7b2183"/><path d="M651.727,508.769v7.82h-1.382V513.8a5.7,5.7,0,0,1-2.249,2.249,6.654,6.654,0,0,1-3.321.825,6.736,6.736,0,0,1-5.21-2.146,8.551,8.551,0,0,1,.021-10.946,6.81,6.81,0,0,1,5.251-2.156,7.208,7.208,0,0,1,4.467,1.393,6.3,6.3,0,0,1,2.383,3.786H650.1a4.847,4.847,0,0,0-1.909-2.765,5.694,5.694,0,0,0-3.353-.99,5.3,5.3,0,0,0-4.116,1.712,7.283,7.283,0,0,0,.011,9.016,5.276,5.276,0,0,0,4.106,1.733,5.253,5.253,0,0,0,5.467-5.344h-4.931v-1.4Z" transform="translate(-316.863 -249.293)" fill="#7b2183"/><path d="M389.287,554.325v1.444H384.6v13.205H383.1V555.769h-4.683v-1.444Z" transform="translate(-188.059 -275.481)" fill="#7b2183"/><path d="M416.116,554.325v14.649H414.61v-6.727h-8.563v6.727h-1.506V554.325h1.506v6.5h8.563v-6.5Z" transform="translate(-201.044 -275.481)" fill="#7b2183"/><path d="M445.719,567.551v1.424h-9.842V554.325h9.842v1.424h-8.336v5.076h7.9v1.424h-7.9v5.3Z" transform="translate(-216.617 -275.481)" fill="#7b2183"/><rect width="1.507" height="14.649" transform="translate(237.747 278.844)" fill="#7b2183"/><path d="M485.453,556.754v12.22h-1.507V554.325h1.573l8.557,12.278V554.325h1.507v14.649H494Z" transform="translate(-240.506 -275.481)" fill="#7b2183"/><path d="M522.466,554.325v1.444h-4.684v13.205h-1.506V555.769h-4.683v-1.444Z" transform="translate(-254.245 -275.481)" fill="#7b2183"/><path d="M547.561,567.551v1.424h-9.842V554.325h9.842v1.424h-8.335v5.076h7.9v1.424h-7.9v5.3Z" transform="translate(-267.229 -275.481)" fill="#7b2183"/><path d="M572.657,567.551v1.424h-8.851V554.325h1.506v13.225Z" transform="translate(-280.193 -275.481)" fill="#7b2183"/><path d="M594.846,567.551v1.424h-8.851V554.325H587.5v13.225Z" transform="translate(-291.22 -275.481)" fill="#7b2183"/><rect width="1.507" height="14.649" transform="translate(305.937 278.844)" fill="#7b2183"/><path d="M631.627,560.849v7.82h-1.382v-2.785A5.7,5.7,0,0,1,628,568.132a6.654,6.654,0,0,1-3.322.826,6.735,6.735,0,0,1-5.21-2.146,8.551,8.551,0,0,1,.021-10.945,6.81,6.81,0,0,1,5.251-2.157A7.209,7.209,0,0,1,629.2,555.1a6.3,6.3,0,0,1,2.383,3.786H630a4.849,4.849,0,0,0-1.908-2.765,5.694,5.694,0,0,0-3.353-.99,5.3,5.3,0,0,0-4.116,1.712,7.283,7.283,0,0,0,.011,9.016,5.276,5.276,0,0,0,4.106,1.733,5.254,5.254,0,0,0,5.468-5.344h-4.931v-1.4Z" transform="translate(-306.874 -275.175)" fill="#7b2183"/><path d="M663.061,567.551v1.424h-9.842V554.325h9.842v1.424h-8.336v5.076h7.9v1.424h-7.9v5.3Z" transform="translate(-324.628 -275.481)" fill="#7b2183"/><path d="M680.811,556.754v12.22H679.3V554.325h1.573l8.557,12.278V554.325h1.507v14.649h-1.589Z" transform="translate(-337.592 -275.481)" fill="#7b2183"/><path d="M717.824,554.325v1.444H713.14v13.205h-1.506V555.769H706.95v-1.444Z" transform="translate(-351.331 -275.481)" fill="#7b2183"/><path d="M385.195,619.675a5.049,5.049,0,0,0,2.878-.712,2.315,2.315,0,0,0,1.042-2.032,2.385,2.385,0,0,0-.474-1.527,2.672,2.672,0,0,0-1.249-.866,13.228,13.228,0,0,0-1.692-.454q-.918-.185-1.847-.413a8.7,8.7,0,0,1-1.7-.6,2.9,2.9,0,0,1-1.249-1.166,4.028,4.028,0,0,1,.867-4.9,5.262,5.262,0,0,1,3.673-1.217,4.994,4.994,0,0,1,3.693,1.32,4.775,4.775,0,0,1,1.362,3.425h-1.465a3.4,3.4,0,0,0-1-2.455,3.537,3.537,0,0,0-2.569-.929,4.112,4.112,0,0,0-2.589.732,2.369,2.369,0,0,0-.939,1.97,2.05,2.05,0,0,0,.485,1.414,2.928,2.928,0,0,0,1.249.815,11.487,11.487,0,0,0,1.692.443q.929.176,1.857.434a8.994,8.994,0,0,1,1.692.65,3.093,3.093,0,0,1,1.248,1.207,3.876,3.876,0,0,1,.485,2.012,3.654,3.654,0,0,1-1.516,3.054,6.381,6.381,0,0,1-3.972,1.155,5.536,5.536,0,0,1-4.023-1.331,4.828,4.828,0,0,1-1.444-3.394h1.485a3.373,3.373,0,0,0,1.2,2.5,4.362,4.362,0,0,0,2.827.866" transform="translate(-188.691 -301.057)" fill="#7b2183"/><path d="M419.005,607.976a8.191,8.191,0,0,1,0,10.894,7.749,7.749,0,0,1-10.791,0,8.192,8.192,0,0,1,0-10.894,7.748,7.748,0,0,1,10.791,0m-9.625.969a6.834,6.834,0,0,0,0,8.955,6.03,6.03,0,0,0,8.46,0,6.834,6.834,0,0,0,0-8.955,6.028,6.028,0,0,0-8.46,0" transform="translate(-201.839 -301.057)" fill="#7b2183"/><path d="M442.093,618.9a8.531,8.531,0,0,1,0-10.956,6.81,6.81,0,0,1,5.251-2.156,7.039,7.039,0,0,1,4.539,1.485,6.644,6.644,0,0,1,2.373,3.982h-1.589a5,5,0,0,0-1.878-2.95,5.545,5.545,0,0,0-3.445-1.094,5.3,5.3,0,0,0-4.116,1.712,7.272,7.272,0,0,0,0,9,5.3,5.3,0,0,0,4.116,1.712,5.538,5.538,0,0,0,3.445-1.094,5,5,0,0,0,1.878-2.95h1.589a6.643,6.643,0,0,1-2.373,3.982,7.036,7.036,0,0,1-4.539,1.486,6.806,6.806,0,0,1-5.251-2.157" transform="translate(-218.716 -301.057)" fill="#7b2183"/><rect width="1.507" height="14.649" transform="translate(238.511 305.041)" fill="#7b2183"/><path d="M495.307,619.629v1.424h-9.842V606.4h9.842v1.424h-8.336V612.9h7.9v1.424h-7.9v5.3Z" transform="translate(-241.26 -301.363)" fill="#7b2183"/><path d="M518.651,606.4v1.444h-4.684v13.205h-1.506V607.848h-4.683V606.4Z" transform="translate(-252.349 -301.363)" fill="#7b2183"/><path d="M540.7,606.4h1.754l-5.592,9.451v5.2h-1.506v-5.2l-5.592-9.451h1.692l4.649,7.857.038.005Z" transform="translate(-263.274 -301.363)" fill="#7b2183"/></g></svg>
