<svg id="Component_268_1" data-name="Component 268 – 1" xmlns="http://www.w3.org/2000/svg" xmlns:xlink="http://www.w3.org/1999/xlink" width="47" height="24" viewBox="0 0 47 24">
  <defs>
    <clipPath id="clip-path">
      <rect id="Rectangle_11340" data-name="Rectangle 11340" width="47" height="24" transform="translate(0 0)" fill="none"/>
    </clipPath>
  </defs>
  <g id="Group_15223" data-name="Group 15223" clip-path="url(#clip-path)">
    <path id="Path_5880" data-name="Path 5880" d="M4.451,22.874a2.68,2.68,0,0,1-1.342.538c-1.553.143-2.941-1.353-3.1-3.3a4.94,4.94,0,0,1,.01-.8c.367-3.758,3.21-8.78,6-10.8a5.143,5.143,0,0,1,2.512-1,2.427,2.427,0,0,1,2.85,2.443,4.907,4.907,0,0,1,.007.636,3.322,3.322,0,0,1-2.733,3.244.352.352,0,0,1-.4-.282.263.263,0,0,1,.059-.2A7.987,7.987,0,0,0,9.824,9.327c-.032-.395-.189-.683-.524-.763a1.2,1.2,0,0,0-.36-.03c-1.523.14-3.855,3.189-5.384,6.4a14.07,14.07,0,0,0-1.64,6.072,1.659,1.659,0,0,0,.4,1.077.358.358,0,0,0,.321.1c1.272-.117,4.3-4.932,5.179-6.351a.31.31,0,0,0,.045-.179.141.141,0,0,0-.146-.146H7.7c-1.369.206-2.884,1.38-2.8,2.629a.266.266,0,0,1-.244.293.252.252,0,0,1-.151-.018,1.346,1.346,0,0,1-.722-1.191,2.556,2.556,0,0,1,.72-1.976,2.411,2.411,0,0,1,1.565-.733,12.068,12.068,0,0,1,1.947.123,3.812,3.812,0,0,0,.715,0,3.091,3.091,0,0,0,.892-.21.728.728,0,0,1,.16-.047.506.506,0,0,1,.5.495.463.463,0,0,1-.053.26,25.946,25.946,0,0,0-2.258,7.922c-.066.535-.165,1.58-.165,1.58a1.454,1.454,0,0,1-.848,1.316c-.554.339-1.4.338-1.437-.152a.724.724,0,0,0,.008-.08c.183-1.975,2.123-7.245,2.665-8.648A.127.127,0,0,0,8.209,17c-.005-.063-.037-.092-.082-.088a.112.112,0,0,0-.1.073c-.636,1.348-2.424,5.046-3.578,5.885" transform="translate(0 -6.387)" fill="#fff"/>
    <path id="Path_5881" data-name="Path 5881" d="M127.809,66.683c.222-.021.516.112.535.349a.311.311,0,0,1-.045.179c-.807,1.634-2.142,4.654-3.185,5.212a1.156,1.156,0,0,1-.451.137,1.312,1.312,0,0,1-1.447-1.124V71.42a4.564,4.564,0,0,1,.314-1.652.507.507,0,0,0,.029-.194c-.006-.079-.055-.122-.114-.117a.283.283,0,0,0-.2.161,24.9,24.9,0,0,1-1.833,3.321,1.636,1.636,0,0,1-1.14.646,1.674,1.674,0,0,1-1.793-1.538,2.139,2.139,0,0,1,.056-.594c.569-2.361,2.665-5.928,4.3-6.318.044,0,.087-.024.132-.028.592-.055.949.5,1.373.574a.384.384,0,0,0,.134,0c.163-.015.331-.142.733-.513a.81.81,0,0,1,.459-.217,1.146,1.146,0,0,1,1.12.947.515.515,0,0,1-.105.36,9.925,9.925,0,0,0-1.848,4.611c.011.142.062.217.136.21.644-.139,1.992-3.017,2.633-4.3a.235.235,0,0,1,.2-.1m-4.222-.057c-.019-.237-.08-.438-.232-.472l-.03,0c-.592.055-3.125,5.222-3.064,5.98.005.063.022.094.067.09.459-.042,2.821-4,3.206-4.959a1.945,1.945,0,0,0,.052-.642" transform="translate(-109.061 -58.957)" fill="#fff"/>
    <path id="Path_5882" data-name="Path 5882" d="M211.063,1.293A2.553,2.553,0,0,1,212.927.007,1.523,1.523,0,0,1,214.6,1.046l.006.079a.477.477,0,0,1-.214.481c-1.894.541-3.421,3.037-4.9,6.166a.22.22,0,0,0-.035.115.084.084,0,0,0,.1.071.224.224,0,0,0,.113-.074A23.338,23.338,0,0,1,211.9,4.8,1.807,1.807,0,0,1,213,4.282a1.469,1.469,0,0,1,1.672,1.326,1.862,1.862,0,0,1-.007.287c-.1,1.506-1.748,5.477-3.388,6.759a1.928,1.928,0,0,1-.98.409,1.481,1.481,0,0,1-1.343-.577c-.15-.193-.26-.263-.378-.252-.251.023-.528.478-1.162,1.11a.861.861,0,0,1-.489.22.708.708,0,0,1-.819-.545.638.638,0,0,1,.064-.308c1.325-2.971,2.8-8.184,4.889-11.417m1.669,4.43c-.606.056-3.618,4.281-3.513,5.576a.4.4,0,0,0,.176.334.189.189,0,0,0,.136.019c.917-.085,3.455-4.632,3.369-5.706-.01-.126-.061-.2-.137-.226Z" transform="translate(-189.726 0.481)" fill="#fff"/>
    <path id="Path_5883" data-name="Path 5883" d="M307.541,50.992a1.33,1.33,0,0,1-.522.175,1.314,1.314,0,0,1-1.436-1.173l0-.032a6.416,6.416,0,0,1,.493-2.194c0-.016.012-.033.011-.049a.116.116,0,0,0-.127-.1.127.127,0,0,0-.085.056c-.461.934-1.535,3.691-2.311,4.415a1.57,1.57,0,0,1-.948.437,1.731,1.731,0,0,1-1.888-1.418V51.1c-.087-1.631,1.388-4.585,2.123-5.814a.491.491,0,0,1,.4-.228A1.315,1.315,0,0,1,304.56,46a.661.661,0,0,1-.09.358c-1.4,2.421-2.088,4.22-2.047,4.725,0,.063.008.095.04.124a.151.151,0,0,0,.091.024c.385-.035,1.37-1.861,4.548-7.9a.5.5,0,0,1,.441-.263c.577-.053,1.451.439,1.5.992a.519.519,0,0,1-.051.291,20.7,20.7,0,0,0-1.867,5.3.155.155,0,0,0,.071.137.206.206,0,0,0,.1.006c.355-.033.973-.87,2.656-3.826a.338.338,0,0,1,.268-.184.439.439,0,0,1,.46.34.25.25,0,0,1-.045.179c-.877,1.689-2.141,4.113-3.093,4.694" transform="translate(-276.819 -38.926)" fill="#fff"/>
    <path id="Path_5884" data-name="Path 5884" d="M405.348,36.137a.656.656,0,0,1,.62.484.2.2,0,0,1-.019.129,26.593,26.593,0,0,1-2.228,4.328,1.412,1.412,0,0,1-1.012.571,1.88,1.88,0,0,1-1.989-1.568.9.9,0,0,1,0-.207,17.535,17.535,0,0,1,1.164-3.848.128.128,0,0,0,.01-.065.112.112,0,0,0-.129-.115.193.193,0,0,0-.1.057,33.568,33.568,0,0,0-3.487,6.45.843.843,0,0,1-.746.546c-.562.052-1.233-.316-1.273-.822a.467.467,0,0,1,0-.143,32.378,32.378,0,0,1,1.9-6.192.652.652,0,0,1,.576-.435,1.123,1.123,0,0,1,1.167.8.557.557,0,0,1-.054.26,34.561,34.561,0,0,0-1.64,3.494.331.331,0,0,0-.006.112c.006.079.04.124.1.118s.115-.058.166-.159c.71-1.546,2.518-5.166,3.4-6.059a.959.959,0,0,1,.59-.261,1.591,1.591,0,0,1,1.668,1.279,1.1,1.1,0,0,1-.056.419c-.158.444-1.655,4.052-1.586,4.905.008.095.042.155.1.166l.03,0c.547-.05,2.544-3.927,2.608-4.061a.244.244,0,0,1,.224-.18" transform="translate(-364.666 -30.273)" fill="#fff"/>
    <path id="Path_5885" data-name="Path 5885" d="M449.008,161.785l-.092.005a.4.4,0,0,0,.092-.005" transform="translate(-413.236 -147.57)" fill="#918f8f"/>
    <rect id="Rectangle_11311" data-name="Rectangle 11311" width="0.847" height="0.904" transform="translate(23.378 21.144)" fill="#f6a608"/>
    <rect id="Rectangle_11312" data-name="Rectangle 11312" width="0.844" height="0.904" transform="translate(24.373 20.1)" fill="#f6a608"/>
    <rect id="Rectangle_11313" data-name="Rectangle 11313" width="0.846" height="0.904" transform="translate(25.359 19.073)" fill="#f6a608"/>
    <rect id="Rectangle_11314" data-name="Rectangle 11314" width="0.841" height="0.903" transform="translate(22.387 18.018)" fill="#f6a608"/>
    <rect id="Rectangle_11315" data-name="Rectangle 11315" width="0.841" height="0.903" transform="translate(24.384 18.018)" fill="#f6a608"/>
    <rect id="Rectangle_11316" data-name="Rectangle 11316" width="0.847" height="0.903" transform="translate(23.378 16.976)" fill="#f6a608"/>
    <rect id="Rectangle_11317" data-name="Rectangle 11317" width="0.846" height="0.903" transform="translate(30.338 16.976)" fill="#f6a608"/>
    <rect id="Rectangle_11318" data-name="Rectangle 11318" width="0.844" height="0.903" transform="translate(24.373 15.935)" fill="#f6a608"/>
    <rect id="Rectangle_11319" data-name="Rectangle 11319" width="0.847" height="0.903" transform="translate(25.366 15.935)" fill="#f6a608"/>
    <rect id="Rectangle_11320" data-name="Rectangle 11320" width="0.846" height="0.903" transform="translate(29.342 15.935)" fill="#f6a608"/>
    <rect id="Rectangle_11321" data-name="Rectangle 11321" width="0.844" height="0.904" transform="translate(24.373 14.893)" fill="#f6a608"/>
    <rect id="Rectangle_11322" data-name="Rectangle 11322" width="0.847" height="0.904" transform="translate(25.366 16.975)" fill="#f6a608"/>
    <rect id="Rectangle_11323" data-name="Rectangle 11323" width="0.846" height="0.904" transform="translate(26.361 14.893)" fill="#f6a608"/>
    <rect id="Rectangle_11324" data-name="Rectangle 11324" width="0.846" height="0.904" transform="translate(26.361 15.932)" fill="#f6a608"/>
    <rect id="Rectangle_11325" data-name="Rectangle 11325" width="0.846" height="0.904" transform="translate(26.361 18.021)" fill="#f6a608"/>
    <rect id="Rectangle_11326" data-name="Rectangle 11326" width="0.85" height="0.904" transform="translate(27.353 14.893)" fill="#f6a608"/>
    <rect id="Rectangle_11327" data-name="Rectangle 11327" width="0.85" height="0.904" transform="translate(27.347 13.811)" fill="#f6a608"/>
    <rect id="Rectangle_11328" data-name="Rectangle 11328" width="0.85" height="0.904" transform="translate(30.338 13.811)" fill="#f6a608"/>
    <rect id="Rectangle_11329" data-name="Rectangle 11329" width="0.846" height="0.904" transform="translate(29.342 14.893)" fill="#f6a608"/>
    <rect id="Rectangle_11330" data-name="Rectangle 11330" width="0.846" height="0.903" transform="translate(28.347 15.935)" fill="#f6a608"/>
    <rect id="Rectangle_11331" data-name="Rectangle 11331" width="0.846" height="0.903" transform="translate(22.382 23.097)" fill="#f6a608"/>
    <rect id="Rectangle_11332" data-name="Rectangle 11332" width="0.846" height="0.903" transform="translate(30.338 12.705)" fill="#f6a608"/>
    <path id="Path_5886" data-name="Path 5886" d="M124.434,186.94a2.21,2.21,0,0,1-.646,1.7,2.806,2.806,0,0,1-1.969.6h-3.341V182.1h3.361a2.892,2.892,0,0,1,1.864.481,1.7,1.7,0,0,1,.572,1.381,1.4,1.4,0,0,1-.244.89,2.119,2.119,0,0,1-.592.511,1.638,1.638,0,0,1,.736.586,1.741,1.741,0,0,1,.259.994m-2.048-2.714a.631.631,0,0,0-.129-.4.578.578,0,0,0-.477-.165h-1.452v1.133h1.452a.514.514,0,0,0,.607-.566m.159,2.751a.71.71,0,0,0-.169-.5.67.67,0,0,0-.517-.184h-1.531v1.388h1.521a.654.654,0,0,0,.527-.2.753.753,0,0,0,.169-.505" transform="translate(-109.061 -166.158)" fill="#fff"/>
    <rect id="Rectangle_11333" data-name="Rectangle 11333" width="1.969" height="7.145" transform="translate(16.158 15.94)" fill="#fff"/>
    <path id="Path_5887" data-name="Path 5887" d="M421.065,185.838a2.379,2.379,0,0,1-.214,1.051,1.879,1.879,0,0,1-.6.715,2.644,2.644,0,0,1-.91.408,4.723,4.723,0,0,1-1.153.133,5.2,5.2,0,0,1-1.616-.25,5.27,5.27,0,0,1-1.317-.617l.935-1.552a3.521,3.521,0,0,0,.443.26,5.168,5.168,0,0,0,.527.23,4.066,4.066,0,0,0,.552.163,2.411,2.411,0,0,0,.517.061,1.7,1.7,0,0,0,.711-.1.369.369,0,0,0,.194-.357.324.324,0,0,0-.055-.184.553.553,0,0,0-.189-.158,2.1,2.1,0,0,0-.363-.153q-.229-.077-.577-.158a9.929,9.929,0,0,1-1.094-.327,2.581,2.581,0,0,1-.776-.434,1.641,1.641,0,0,1-.462-.628,2.351,2.351,0,0,1-.154-.908,2.16,2.16,0,0,1,.194-.919,2.018,2.018,0,0,1,.552-.715,2.584,2.584,0,0,1,.865-.459,3.687,3.687,0,0,1,1.134-.163,5.062,5.062,0,0,1,1.556.214,4.433,4.433,0,0,1,1.218.613l-.935,1.551a4.184,4.184,0,0,0-.935-.5,2.864,2.864,0,0,0-1-.174.932.932,0,0,0-.577.123.4.4,0,0,0-.139.316.3.3,0,0,0,.055.179.5.5,0,0,0,.184.143,2.129,2.129,0,0,0,.348.133q.219.066.557.148a8.518,8.518,0,0,1,1.134.357,2.825,2.825,0,0,1,.785.459,1.639,1.639,0,0,1,.457.633,2.3,2.3,0,0,1,.149.868" transform="translate(-382.253 -164.948)" fill="#fff"/>
    <rect id="Rectangle_11334" data-name="Rectangle 11334" width="0.85" height="0.903" transform="translate(27.353 18.018)" fill="#fff"/>
    <rect id="Rectangle_11335" data-name="Rectangle 11335" width="0.844" height="0.903" transform="translate(24.373 16.976)" fill="#fff"/>
    <rect id="Rectangle_11336" data-name="Rectangle 11336" width="0.85" height="0.903" transform="translate(27.353 16.976)" fill="#fff"/>
    <path id="Path_5888" data-name="Path 5888" d="M334.928,181.8v.91h.9v1.207h-.9v1.976a1.85,1.85,0,0,1-.254,1.041.916.916,0,0,1-.82.378.942.942,0,0,1-.83-.378,1.8,1.8,0,0,1-.263-1.041v-.934H330.8l-.005.934a4.086,4.086,0,0,0,.229,1.449,2.611,2.611,0,0,0,.631.985,2.412,2.412,0,0,0,.96.556,4.06,4.06,0,0,0,1.213.174,4.11,4.11,0,0,0,1.218-.174,2.494,2.494,0,0,0,.974-.556,2.6,2.6,0,0,0,.646-.985,4.011,4.011,0,0,0,.234-1.449V181.8Z" transform="translate(-304.5 -165.883)" fill="#fff"/>
    <rect id="Rectangle_11337" data-name="Rectangle 11337" width="0.85" height="0.903" transform="translate(27.353 15.935)" fill="#008ed3"/>
    <rect id="Rectangle_11338" data-name="Rectangle 11338" width="0.847" height="0.904" transform="translate(23.378 15.943)" fill="#fff"/>
    <rect id="Rectangle_11339" data-name="Rectangle 11339" width="0.846" height="0.904" transform="translate(26.361 16.981)" fill="#fff"/>
    <path id="Path_5889" data-name="Path 5889" d="M246.624,185.232h-.982v-1.056h-.867v.362q0,.276.01.536t.02.48a3.061,3.061,0,0,0,.03.342q-.06-.112-.189-.327c-.079-.132-.1-.188-.2-.337h-.8v-1.1l-1.431-2.032h-1.7v7.145h1.849v-2.674q0-.276-.01-.536t-.02-.48a3.184,3.184,0,0,0-.03-.342q.069.122.2.337t.288.454q.154.24.313.48t.278.4l1.66,2.358h1.571V187.3h-.849v1.04h-1.145v-1.181h1.011v-1.026h.982Z" transform="translate(-221.402 -166.158)" fill="#fff"/>
    <path id="Path_5890" data-name="Path 5890" d="M481.032,17.311a.9.9,0,0,0-.986-.769.77.77,0,0,0-.362.129c-.368.241-.676.858-1,.9l-.044,0c-.459.042-.849-.368-1.456-.312a1.33,1.33,0,0,0-.409.1c-1.442.595-3.331,4.143-3.6,5.982a1.266,1.266,0,0,0-.019.32,1.582,1.582,0,0,0,1.719,1.354,1.237,1.237,0,0,0,.677-.285,23.172,23.172,0,0,0,2.954-4.936c.037-.081.078-.117.135-.124a.145.145,0,0,1,.15.141.158.158,0,0,1-.008.085c-.125.363-.628,2.434-1.2,4.06l-.733,1.9c-.785,2.172-1.8,3.911-2.774,4.276a1.2,1.2,0,0,1-.356.066c-.343.011-.555-.229-.685-.6a4.52,4.52,0,0,1,.423-2.984.266.266,0,0,0,.011-.206c-.049-.15-.241-.166-.449-.168a1.957,1.957,0,0,0-1.757,1.895,2.926,2.926,0,0,0,.116,1.261,2.41,2.41,0,0,0,3.33,1.607,5.359,5.359,0,0,0,2.2-1.633,17.612,17.612,0,0,0,2.936-6.705l.1-.379c.6-2.3,1.1-4.941,1.092-4.986M475.08,23.32a.075.075,0,0,1-.062-.026c0-.016-.017-.03-.019-.046-.05-.616,2.064-4.886,2.744-4.949l.03,0c.075.009.11.07.116.148.069.853-2.352,4.833-2.81,4.875" transform="translate(-433.783 -14.655)" fill="#fff"/>
  </g>
</svg>
