<?xml version="1.0" encoding="UTF-8"?>
<svg id="Layer_2" data-name="Layer 2" xmlns="http://www.w3.org/2000/svg" viewBox="0 0 726.91 634.92">
  <defs>
    <style>
      .cls-1 {
        fill: #fff;
      }
    </style>
  </defs>
  <g id="Layer_1-2" data-name="Layer 1">
    <g>
      <circle class="cls-1" cx="664.49" cy="141" r="25.06"/>
      <rect class="cls-1" x="611.65" y="82.16" width="29.45" height="29.45"/>
      <path class="cls-1" d="M64.97,365.87H0v66.49c0,20.09,16.28,36.37,36.37,36.37h29.76v-102.86h57.17v-58.33h-58.33v58.33Z"/>
      <path class="cls-1" d="M44.01,84.1h11.18l11.34,15.2h5.42l-12.01-15.98c1.53-.26,2.94-.7,4.25-1.31,1.3-.61,2.43-1.4,3.38-2.35.95-.95,1.68-2.07,2.21-3.35.52-1.29.78-2.75.78-4.39v-.11c0-1.56-.26-3-.78-4.3-.52-1.3-1.27-2.44-2.24-3.41-1.23-1.23-2.78-2.19-4.67-2.88-1.88-.69-4.03-1.03-6.45-1.03h-16.82v39.11h4.41v-15.2ZM44.01,64.26h12.1c3.17,0,5.64.68,7.39,2.04,1.76,1.36,2.63,3.25,2.63,5.67v.11c0,1.27-.25,2.39-.76,3.38-.5.99-1.2,1.83-2.1,2.51-.9.69-1.96,1.22-3.19,1.59-1.23.37-2.58.56-4.03.56h-12.05v-15.87Z"/>
      <path class="cls-1" d="M80.94,93.96c1.75,1.84,3.85,3.31,6.29,4.39,2.44,1.08,5.15,1.62,8.13,1.62s5.7-.55,8.16-1.65c2.46-1.1,4.56-2.57,6.31-4.42,1.75-1.84,3.11-4,4.08-6.45.97-2.46,1.45-5.03,1.45-7.71.04-.04.04-.07,0-.11,0-2.68-.48-5.24-1.43-7.68-.95-2.44-2.3-4.58-4.05-6.43-1.75-1.84-3.85-3.3-6.29-4.39-2.44-1.08-5.15-1.62-8.13-1.62s-5.7.55-8.16,1.65c-2.46,1.1-4.56,2.57-6.32,4.41-1.75,1.84-3.11,4-4.08,6.45-.97,2.46-1.45,5.03-1.45,7.71v.11c0,2.68.48,5.24,1.43,7.68.95,2.44,2.3,4.58,4.05,6.43ZM80.05,79.63c0-2.23.38-4.32,1.15-6.26.76-1.94,1.82-3.63,3.16-5.08,1.34-1.45,2.95-2.6,4.83-3.44,1.88-.84,3.94-1.26,6.17-1.26s4.29.43,6.17,1.28c1.88.86,3.51,2.01,4.89,3.46,1.38,1.45,2.45,3.16,3.21,5.11.76,1.95,1.14,4.05,1.14,6.29v.11c0,2.24-.38,4.32-1.14,6.26-.76,1.94-1.82,3.63-3.16,5.09-1.34,1.45-2.95,2.6-4.83,3.44-1.88.84-3.94,1.26-6.17,1.26s-4.29-.43-6.17-1.29c-1.88-.86-3.51-2.01-4.89-3.46-1.38-1.45-2.45-3.16-3.21-5.11-.76-1.96-1.15-4.05-1.15-6.29v-.11Z"/>
      <path class="cls-1" d="M127.71,88.96h21.29l4.58,10.34h4.75l-17.83-39.39h-4.13l-17.83,39.39h4.53l4.64-10.34ZM138.38,65.05l8.88,19.95h-17.83l8.94-19.95Z"/>
      <path class="cls-1" d="M185.24,97.79c2.55-1.01,4.75-2.38,6.59-4.14,1.84-1.75,3.27-3.82,4.27-6.2,1.01-2.38,1.51-4.95,1.51-7.71v-.11c0-2.76-.5-5.32-1.51-7.68-1.01-2.37-2.43-4.42-4.27-6.17-1.85-1.75-4.04-3.12-6.59-4.11-2.55-.99-5.36-1.48-8.41-1.48h-13.58v39.11h13.58c3.05,0,5.86-.5,8.41-1.51ZM167.66,64.26h9.17c2.46,0,4.69.4,6.71,1.2,2.01.8,3.72,1.9,5.11,3.3,1.4,1.4,2.47,3.04,3.24,4.92.76,1.88,1.15,3.9,1.15,6.06v.11c0,2.16-.38,4.18-1.15,6.06-.76,1.88-1.84,3.51-3.24,4.89-1.4,1.38-3.1,2.46-5.11,3.24-2.01.78-4.25,1.17-6.71,1.17h-9.17v-30.96Z"/>
      <polygon class="cls-1" points="140.79 149.67 140.79 114.64 153.92 114.64 153.92 110.56 123.24 110.56 123.24 114.64 136.37 114.64 136.37 149.67 140.79 149.67"/>
      <path class="cls-1" d="M157.72,130.22c0,2.68.48,5.24,1.43,7.68.95,2.44,2.3,4.58,4.05,6.43,1.75,1.84,3.85,3.31,6.29,4.39,2.44,1.08,5.15,1.62,8.13,1.62s5.7-.55,8.16-1.65c2.46-1.1,4.56-2.57,6.31-4.42,1.75-1.84,3.11-4,4.08-6.45.97-2.46,1.45-5.03,1.45-7.71.04-.04.04-.07,0-.11,0-2.68-.48-5.24-1.43-7.68-.95-2.44-2.3-4.58-4.05-6.43-1.75-1.84-3.85-3.3-6.29-4.39-2.44-1.08-5.15-1.62-8.13-1.62s-5.7.55-8.16,1.65c-2.46,1.1-4.56,2.57-6.32,4.41-1.75,1.84-3.11,4-4.08,6.45-.97,2.46-1.45,5.03-1.45,7.71v.11ZM162.3,130c0-2.23.38-4.32,1.15-6.26.76-1.94,1.82-3.63,3.16-5.08,1.34-1.45,2.95-2.6,4.83-3.44,1.88-.84,3.94-1.26,6.17-1.26s4.29.43,6.17,1.28c1.88.86,3.51,2.01,4.89,3.46,1.38,1.45,2.45,3.16,3.21,5.11.76,1.95,1.14,4.05,1.14,6.29v.11c0,2.24-.38,4.32-1.14,6.26-.76,1.94-1.82,3.63-3.16,5.09-1.34,1.45-2.95,2.6-4.83,3.44-1.88.84-3.94,1.26-6.17,1.26s-4.29-.43-6.17-1.29c-1.88-.86-3.51-2.01-4.89-3.46-1.38-1.45-2.45-3.16-3.21-5.11-.76-1.96-1.15-4.05-1.15-6.29v-.11Z"/>
      <path class="cls-1" d="M212.34,0h-12.83c-12.05,0-21.82,9.77-21.82,21.83v12.83h34.66V0Z"/>
      <path class="cls-1" d="M244.57,262.12c-14.75,17.94-26.31,30.7-36.68,40.67,13.95-.8,33.09-1.2,52.23-1.2h20.73v-27.51c0-16.35.4-47.04,1.2-60.2-7.57,11.56-15.15,21.53-33.49,43.46l-3.99,4.78Z"/>
      <path class="cls-1" d="M39.59,307.54h0c8.13,0,14.73-6.59,14.73-14.73s-6.59-14.73-14.73-14.73h0c-8.13,0-14.73,6.59-14.73,14.73s6.59,14.73,14.73,14.73Z"/>
      <path class="cls-1" d="M543.84,163.89v-62.62c0-23.06-18.7-41.76-41.76-41.76h-63.47v75.18h-46.22V59.52h46.22v-22.97c0-15-12.16-27.15-27.15-27.15h-61.25v50.12h-137.88v104.38h-44.24c-24.74,0-44.79,20.06-44.79,44.79v260.04h253.87v-51.92c1.76,1.05,3.57,2.09,5.39,3.1.58.32,1.18.63,1.76.95,1.27.69,2.54,1.37,3.83,2.04.69.36,1.4.71,2.1,1.06,1.22.61,2.44,1.22,3.68,1.81.73.35,1.47.69,2.2,1.03,1.24.58,2.49,1.15,3.75,1.7.73.32,1.47.64,2.21.96,1.3.56,2.6,1.1,3.91,1.63.71.29,1.42.58,2.14.86,1.39.55,2.79,1.07,4.19,1.59.65.24,1.29.48,1.94.71,1.57.56,3.14,1.09,4.72,1.61.49.16.98.34,1.48.49,2.07.67,4.14,1.3,6.22,1.9,0,0,.01,0,.01,0,0,0,0,0,0,0,.92.26,1.85.5,2.77.75.92.25,1.85.5,2.77.74.92.23,1.84.44,2.75.66.94.22,1.88.44,2.81.65.9.2,1.79.38,2.69.56.97.19,1.93.38,2.9.56.87.16,1.73.31,2.59.45,1.01.17,2.01.32,3.01.47.82.12,1.64.24,2.46.34,1.06.14,2.12.25,3.17.36.75.08,1.51.16,2.26.23,1.18.1,2.36.18,3.53.25.61.04,1.23.09,1.85.12,1.78.08,3.55.13,5.31.13,35.66,0,54.17-17.39,54.17-39.57s-13.47-32.48-37.24-32.48-37.24,5.94-51.1,15.85l-56.25-23.33h-26.96v49.83h-39.54c-16.47,0-29.83-13.35-29.83-29.83v-20.01H123.37v-56.61l125.79-144.48,24.51-28.15h76.55v165.85h26.96v-79.27h196.96v29.91c0,17.5-13.77,31.75-31.06,32.6-.54.03-1.07.08-1.62.08h-102.08v38.43c15.45-7.53,29.71-12.28,57.44-12.28,59.82,0,99.04,30.11,99.04,91.91,0,33.79-12.6,60.41-35.9,78.12h166.33v-104.6c0-50.63-38.14-91.68-85.18-91.68v-92.02c0-15.92-12.9-28.82-28.82-28.82M689.55,391.02c0,9.69-7.85,17.54-17.54,17.54h-30.91v-48.8h48.45v31.26Z"/>
      <g>
        <g>
          <path class="cls-1" d="M71.8,605.7c0,17.05-10.37,26.94-31.35,26.94H.39v-83.45h40.29c20.74,0,29.21,7.75,29.21,21.7,0,9.06-4.41,13.11-10.01,16.33,7.51,3.22,11.92,9.06,11.92,18.48ZM47.24,573.99c0-3.69-1.79-6.56-7.27-6.56h-17.4v13.11h17.4c5.37,0,7.27-2.62,7.27-6.56ZM49.15,606.18c0-4.89-2.74-7.99-8.23-7.99h-18.36v16.22h18.24c5.72,0,8.34-3.46,8.34-8.23Z"/>
          <path class="cls-1" d="M104.11,632.64h-23.6v-83.45h23.6v83.45Z"/>
          <path class="cls-1" d="M188.88,632.64h-18.84l-19.91-27.54c-3.7-5.12-10.85-15.86-13-19.55.6,3.69.72,14.78.72,21.58v25.51h-22.17v-83.45h20.39l18.36,24.68c3.82,5.13,11.21,16.21,13,19.67-.6-3.7-.72-14.78-.72-21.58v-22.77h22.17v83.45Z"/>
          <path class="cls-1" d="M272.57,596.99c0,26.47-15.86,36.96-36.84,36.96s-36.36-10.49-36.36-36.96v-47.8h23.6v47.8c0,10.25,4.05,16.57,13.11,16.57s12.88-6.32,12.88-16.57v-47.8h23.6v47.8Z"/>
          <path class="cls-1" d="M349.47,607.01c0,19.07-14.43,26.94-34.45,26.94-13.47,0-26.46-4.41-35.17-10.13l11.2-18.12c6.08,4.17,16.69,8.35,24.44,8.35,8.23,0,10.85-1.43,10.85-5.37,0-3.1-2.98-5.01-14.19-7.63-20.15-4.65-29.8-10.13-29.8-26.82,0-15.74,12.76-26.35,32.9-26.35,14.19,0,24.44,3.46,33.26,9.66l-11.21,18.12c-7.39-5.01-14.78-7.87-23.25-7.87-6.91,0-8.58,2.15-8.58,5.12s2.98,4.53,13.71,7.03c20.98,5.01,30.28,11.45,30.28,27.06Z"/>
          <g>
            <path class="cls-1" d="M198.9,522.35l-13.76-20.98h7.18l9.7,15.34,9.8-15.34h6.98l-13.76,20.83v13.81h-6.14v-13.66Z"/>
            <path class="cls-1" d="M221.67,501.37h25.63v5.49h-19.59v8.91h17.37v5.49h-17.37v9.25h19.84v5.49h-25.88v-34.64Z"/>
            <path class="cls-1" d="M264.61,501.12h5.64l15.24,34.88h-6.43l-3.51-8.36h-16.38l-3.56,8.36h-6.23l15.24-34.88ZM273.32,522.25l-5.99-13.86-5.94,13.86h11.93Z"/>
            <path class="cls-1" d="M288.96,501.37h15.44c2.18,0,4.11.31,5.79.92,1.68.61,3.08,1.46,4.21,2.55.92.96,1.63,2.06,2.13,3.31.49,1.25.74,2.64.74,4.16v.1c0,1.42-.21,2.7-.62,3.83-.41,1.14-.98,2.14-1.71,3.02-.73.87-1.59,1.62-2.6,2.23-1.01.61-2.12,1.08-3.34,1.41l9.35,13.11h-7.18l-8.54-12.07h-7.64v12.07h-6.04v-34.64ZM303.93,518.54c2.18,0,3.92-.52,5.21-1.57,1.29-1.04,1.94-2.46,1.94-4.25v-.1c0-1.89-.63-3.32-1.89-4.3-1.26-.98-3.03-1.47-5.31-1.47h-8.88v11.68h8.93Z"/>
            <path class="cls-1" d="M334.43,536.5c-2.67,0-5.23-.45-7.67-1.36-2.44-.91-4.7-2.3-6.78-4.18l3.66-4.35c1.68,1.45,3.38,2.57,5.1,3.34s3.66,1.16,5.84,1.16c1.88,0,3.37-.4,4.48-1.19,1.11-.79,1.66-1.85,1.66-3.17v-.1c0-.63-.11-1.18-.32-1.66-.21-.48-.61-.93-1.19-1.36-.58-.43-1.37-.82-2.38-1.19-1.01-.36-2.32-.72-3.94-1.09-1.85-.43-3.5-.92-4.94-1.46-1.44-.55-2.65-1.2-3.62-1.98-.98-.77-1.72-1.72-2.23-2.85-.51-1.12-.77-2.47-.77-4.06v-.1c0-1.48.29-2.85.88-4.08.59-1.24,1.4-2.29,2.43-3.17,1.03-.87,2.27-1.56,3.72-2.05,1.45-.49,3.03-.74,4.75-.74,2.54,0,4.82.37,6.85,1.11,2.03.74,3.93,1.82,5.72,3.24l-3.27,4.6c-1.58-1.16-3.15-2.04-4.7-2.65-1.55-.61-3.12-.92-4.7-.92-1.78,0-3.17.4-4.16,1.19-.99.79-1.48,1.77-1.48,2.92v.1c0,.66.11,1.25.35,1.76.23.51.65.97,1.27,1.39.61.41,1.45.8,2.53,1.16,1.07.36,2.44.74,4.09,1.14,1.82.46,3.43.97,4.84,1.53,1.41.56,2.57,1.25,3.5,2.05.93.81,1.63,1.75,2.11,2.82.48,1.07.72,2.32.72,3.74v.1c0,1.62-.3,3.07-.91,4.35-.61,1.29-1.45,2.38-2.53,3.27-1.08.89-2.38,1.57-3.89,2.03-1.51.46-3.18.69-4.99.69Z"/>
          </g>
        </g>
        <g>
          <path class="cls-1" d="M383,526.64c-2.64-2.85-3.95-6.48-3.95-10.87s1.32-8.02,3.95-10.87c2.63-2.85,6.11-4.28,10.42-4.28,3.55,0,6.55.98,9.01,2.95,2.46,1.97,4.03,4.6,4.71,7.9h-3.15c-.57-2.46-1.82-4.41-3.73-5.86s-4.19-2.17-6.84-2.17c-3.39,0-6.11,1.13-8.17,3.4-2.06,2.27-3.09,5.24-3.09,8.93s1.03,6.66,3.09,8.93c2.06,2.27,4.78,3.4,8.17,3.4,2.65,0,4.93-.72,6.84-2.17,1.91-1.45,3.15-3.4,3.73-5.86h3.15c-.68,3.3-2.25,5.94-4.71,7.9-2.46,1.97-5.46,2.95-9.01,2.95-4.31,0-7.79-1.43-10.42-4.28Z"/>
          <path class="cls-1" d="M436.12,504.96c2.74,2.89,4.12,6.5,4.12,10.81s-1.37,7.92-4.12,10.81c-2.74,2.89-6.31,4.34-10.71,4.34s-7.97-1.45-10.71-4.34-4.12-6.5-4.12-10.81,1.37-7.92,4.12-10.81,6.31-4.34,10.71-4.34,7.97,1.45,10.71,4.34ZM417.01,506.88c-2.21,2.29-3.32,5.26-3.32,8.89s1.11,6.59,3.32,8.89,5.01,3.44,8.4,3.44,6.18-1.15,8.4-3.44,3.32-5.26,3.32-8.89-1.11-6.59-3.32-8.89-5.01-3.44-8.4-3.44-6.18,1.15-8.4,3.44Z"/>
          <path class="cls-1" d="M456.78,518.51v2.74h-12.61v-2.74h12.61Z"/>
          <path class="cls-1" d="M464.66,526.64c-2.64-2.85-3.95-6.48-3.95-10.87s1.32-8.02,3.95-10.87c2.63-2.85,6.11-4.28,10.42-4.28,3.55,0,6.55.98,9.01,2.95,2.46,1.97,4.03,4.6,4.71,7.9h-3.15c-.57-2.46-1.82-4.41-3.73-5.86-1.91-1.45-4.19-2.17-6.84-2.17-3.39,0-6.11,1.13-8.17,3.4-2.06,2.27-3.09,5.24-3.09,8.93s1.03,6.66,3.09,8.93c2.06,2.27,4.78,3.4,8.17,3.4,2.65,0,4.93-.72,6.84-2.17,1.91-1.45,3.15-3.4,3.73-5.86h3.15c-.68,3.3-2.25,5.94-4.71,7.9-2.46,1.97-5.46,2.95-9.01,2.95-4.31,0-7.79-1.43-10.42-4.28Z"/>
          <path class="cls-1" d="M516.66,530.31h-3.6l-6.84-12.66h-8.52v12.66h-2.99v-29.08h11.96c3.14,0,5.48.76,7.02,2.27,1.54,1.51,2.31,3.49,2.31,5.92,0,2.05-.55,3.78-1.66,5.2-1.11,1.42-2.78,2.33-5.02,2.74l7.33,12.94ZM512.89,509.42c0-1.64-.51-2.93-1.54-3.89-1.02-.95-2.55-1.43-4.57-1.43h-9.09v10.69h9.09c2.02,0,3.54-.47,4.57-1.41,1.02-.94,1.54-2.26,1.54-3.95Z"/>
          <path class="cls-1" d="M541.76,527.48v2.83h-19.54v-29.08h19.54v2.83h-16.55v10.07h15.69v2.83h-15.69v10.53h16.55Z"/>
          <path class="cls-1" d="M547.49,530.31h-3.19l11.96-29.08h3.24l12,29.08h-3.32l-2.75-6.8h-15.18l-2.76,6.8ZM557.9,504.87h-.08s-6.43,15.85-6.43,15.85h12.92l-6.4-15.85Z"/>
          <path class="cls-1" d="M590.91,501.23v2.87h-9.3v26.21h-2.99v-26.21h-9.3v-2.87h21.58Z"/>
          <path class="cls-1" d="M598.4,501.23v29.08h-2.99v-29.08h2.99Z"/>
          <path class="cls-1" d="M609.7,506.05v24.26h-2.99v-29.08h3.12l16.99,24.37v-24.37h2.99v29.08h-3.15l-16.96-24.26Z"/>
          <path class="cls-1" d="M664.13,514.78v15.52h-2.74v-5.53c-1.04,1.88-2.53,3.37-4.46,4.46-1.94,1.09-4.14,1.64-6.59,1.64-4.29,0-7.73-1.42-10.34-4.26-2.61-2.84-3.91-6.46-3.91-10.85s1.32-8.02,3.95-10.87c2.63-2.85,6.11-4.28,10.42-4.28,3.47,0,6.42.92,8.87,2.76,2.44,1.84,4.02,4.35,4.73,7.52h-3.15c-.66-2.35-1.92-4.18-3.79-5.49-1.87-1.31-4.09-1.97-6.65-1.97-3.39,0-6.11,1.13-8.17,3.4-2.06,2.27-3.09,5.24-3.09,8.93s1.04,6.67,3.11,8.97c2.07,2.29,4.79,3.44,8.15,3.44,3.06,0,5.6-.96,7.64-2.89,2.03-1.93,3.11-4.5,3.21-7.72h-9.79v-2.78h12.61Z"/>
          <path class="cls-1" d="M398.87,553.23v2.87h-9.3v26.21h-2.99v-26.21h-9.3v-2.87h21.58Z"/>
          <path class="cls-1" d="M426.35,553.23v29.08h-2.99v-13.35h-17v13.35h-2.99v-29.08h2.99v12.9h17v-12.9h2.99Z"/>
          <path class="cls-1" d="M454.2,579.48v2.83h-19.54v-29.08h19.54v2.83h-16.55v10.07h15.69v2.83h-15.69v10.53h16.55Z"/>
          <path class="cls-1" d="M474.35,553.23v29.08h-2.99v-29.08h2.99Z"/>
          <path class="cls-1" d="M485.65,558.05v24.26h-2.99v-29.08h3.12l16.99,24.37v-24.37h2.99v29.08h-3.15l-16.96-24.26Z"/>
          <path class="cls-1" d="M531.85,553.23v2.87h-9.3v26.21h-2.99v-26.21h-9.3v-2.87h21.58Z"/>
          <path class="cls-1" d="M555.89,579.48v2.83h-19.54v-29.08h19.54v2.83h-16.55v10.07h15.69v2.83h-15.69v10.53h16.55Z"/>
          <path class="cls-1" d="M579.97,579.48v2.83h-17.57v-29.08h2.99v26.25h14.58Z"/>
          <path class="cls-1" d="M602.13,579.48v2.83h-17.57v-29.08h2.99v26.25h14.58Z"/>
          <path class="cls-1" d="M609.7,553.23v29.08h-2.99v-29.08h2.99Z"/>
          <path class="cls-1" d="M644.06,566.79v15.52h-2.74v-5.53c-1.04,1.88-2.53,3.37-4.46,4.46-1.94,1.09-4.14,1.64-6.59,1.64-4.29,0-7.73-1.42-10.34-4.26-2.61-2.84-3.91-6.46-3.91-10.85s1.32-8.02,3.95-10.87c2.63-2.85,6.11-4.28,10.42-4.28,3.47,0,6.42.92,8.87,2.76,2.44,1.84,4.02,4.35,4.73,7.52h-3.15c-.66-2.35-1.92-4.18-3.79-5.49-1.87-1.31-4.09-1.97-6.65-1.97-3.39,0-6.11,1.13-8.17,3.4-2.06,2.27-3.09,5.24-3.09,8.93s1.04,6.67,3.11,8.97c2.07,2.29,4.79,3.44,8.15,3.44,3.06,0,5.6-.96,7.64-2.89,2.03-1.93,3.11-4.5,3.21-7.72h-9.79v-2.78h12.61Z"/>
          <path class="cls-1" d="M671.22,579.48v2.83h-19.54v-29.08h19.54v2.83h-16.55v10.07h15.69v2.83h-15.69v10.53h16.55Z"/>
          <path class="cls-1" d="M680.72,558.05v24.26h-2.99v-29.08h3.12l16.99,24.37v-24.37h2.99v29.08h-3.15l-16.96-24.26Z"/>
          <path class="cls-1" d="M726.91,553.23v2.87h-9.3v26.21h-2.99v-26.21h-9.3v-2.87h21.58Z"/>
          <path class="cls-1" d="M389.49,632.18c2.43,0,4.33-.47,5.71-1.41,1.38-.94,2.07-2.29,2.07-4.03,0-1.23-.31-2.24-.94-3.03-.63-.79-1.45-1.36-2.48-1.72-1.02-.35-2.14-.65-3.36-.9-1.22-.25-2.44-.52-3.67-.82s-2.35-.7-3.38-1.19c-1.02-.49-1.85-1.26-2.48-2.31-.63-1.05-.94-2.37-.94-3.95,0-2.24.89-4.16,2.66-5.77,1.77-1.61,4.2-2.42,7.29-2.42s5.58.87,7.33,2.62c1.75,1.75,2.65,4.01,2.7,6.8h-2.91c-.06-2.02-.72-3.65-1.99-4.87s-2.97-1.84-5.1-1.84-3.9.49-5.14,1.45c-1.24.97-1.86,2.27-1.86,3.91,0,1.15.32,2.08.96,2.81.64.72,1.47,1.26,2.48,1.62,1.01.36,2.13.65,3.36.88,1.23.23,2.46.52,3.69.86s2.35.77,3.36,1.29c1.01.52,1.84,1.32,2.48,2.4.64,1.08.96,2.41.96,3.99,0,2.51-1,4.53-3.01,6.06-2.01,1.53-4.64,2.29-7.88,2.29-3.52,0-6.18-.88-7.99-2.64-1.8-1.76-2.76-4.01-2.87-6.74h2.95c.16,2.16.96,3.81,2.38,4.96,1.42,1.15,3.29,1.72,5.61,1.72Z"/>
          <path class="cls-1" d="M430.51,608.96c2.74,2.89,4.12,6.5,4.12,10.81s-1.37,7.92-4.12,10.81c-2.74,2.89-6.31,4.34-10.71,4.34s-7.97-1.45-10.71-4.34c-2.74-2.89-4.12-6.5-4.12-10.81s1.37-7.92,4.12-10.81,6.31-4.34,10.71-4.34,7.97,1.45,10.71,4.34ZM411.4,610.88c-2.21,2.29-3.32,5.26-3.32,8.89s1.11,6.59,3.32,8.89c2.21,2.29,5.01,3.44,8.4,3.44s6.18-1.15,8.4-3.44,3.32-5.26,3.32-8.89-1.11-6.59-3.32-8.89-5.01-3.44-8.4-3.44-6.18,1.15-8.4,3.44Z"/>
          <path class="cls-1" d="M442.83,630.64c-2.64-2.85-3.95-6.48-3.95-10.87s1.32-8.02,3.95-10.87c2.63-2.85,6.11-4.28,10.42-4.28,3.55,0,6.55.98,9.01,2.95,2.46,1.97,4.03,4.6,4.71,7.9h-3.15c-.57-2.46-1.82-4.41-3.73-5.86-1.91-1.45-4.19-2.17-6.84-2.17-3.39,0-6.11,1.13-8.17,3.4-2.06,2.27-3.09,5.24-3.09,8.93s1.03,6.66,3.09,8.93c2.06,2.27,4.78,3.4,8.17,3.4,2.65,0,4.93-.72,6.84-2.17,1.91-1.45,3.15-3.4,3.73-5.86h3.15c-.68,3.3-2.25,5.94-4.71,7.9s-5.46,2.95-9.01,2.95c-4.31,0-7.79-1.43-10.42-4.28Z"/>
          <path class="cls-1" d="M475.86,605.23v29.08h-2.99v-29.08h2.99Z"/>
          <path class="cls-1" d="M503.71,631.48v2.83h-19.54v-29.08h19.54v2.83h-16.55v10.07h15.69v2.83h-15.69v10.53h16.55Z"/>
          <path class="cls-1" d="M528.04,605.23v2.87h-9.3v26.21h-2.99v-26.21h-9.3v-2.87h21.58Z"/>
          <path class="cls-1" d="M550.11,605.23h3.48l-11.1,18.76v10.32h-2.99v-10.32l-11.1-18.76h3.36l9.23,15.6h.07s9.04-15.6,9.04-15.6Z"/>
        </g>
      </g>
    </g>
  </g>
</svg>
