<svg id="Component_174_1" data-name="Component 174 – 1" xmlns="http://www.w3.org/2000/svg" xmlns:xlink="http://www.w3.org/1999/xlink" width="60" height="60" viewBox="0 0 60 60">
  <defs>
    <clipPath id="clip-path">
      <rect id="Rectangle_11370" data-name="Rectangle 11370" width="60" height="60" fill="none"/>
    </clipPath>
  </defs>
  <g id="Group_15225" data-name="Group 15225" clip-path="url(#clip-path)">
    <path id="Path_5891" data-name="Path 5891" d="M60,30A30,30,0,1,1,30,0,30,30,0,0,1,60,30" transform="translate(0 -0.001)" fill="#008ed3"/>
    <path id="Path_5892" data-name="Path 5892" d="M37.012,65.216a28.2,28.2,0,1,1,28.2-28.2,28.236,28.236,0,0,1-28.2,28.2m0-55.592A27.388,27.388,0,1,0,64.4,37.012,27.419,27.419,0,0,0,37.012,9.624" transform="translate(-7.012 -7.012)" fill="#fff"/>
    <path id="Path_5893" data-name="Path 5893" d="M30.6,113.739a2.842,2.842,0,0,1-1.368.513,3.184,3.184,0,0,1-3.156-3.144,4.405,4.405,0,0,1,.01-.76A16.691,16.691,0,0,1,32.2,100.042a5.45,5.45,0,0,1,2.56-.95,2.43,2.43,0,0,1,2.9,2.331,4.362,4.362,0,0,1,.007.606,3.238,3.238,0,0,1-2.785,3.1.357.357,0,0,1-.4-.269.24.24,0,0,1,.06-.187,7.329,7.329,0,0,0,1.535-3.852.717.717,0,0,0-.533-.728,1.3,1.3,0,0,0-.367-.029c-1.553.134-3.928,3.042-5.486,6.107a12.756,12.756,0,0,0-1.672,5.793,1.527,1.527,0,0,0,.408,1.028.381.381,0,0,0,.327.093c1.3-.112,4.377-4.705,5.278-6.058a.28.28,0,0,0,.046-.171.139.139,0,0,0-.148-.139h-.015c-1.4.2-2.938,1.316-2.851,2.508a.259.259,0,0,1-.249.28.273.273,0,0,1-.153-.017,1.279,1.279,0,0,1-.736-1.136,2.35,2.35,0,0,1,.733-1.885,2.534,2.534,0,0,1,1.595-.7,13.116,13.116,0,0,1,1.984.117,4.144,4.144,0,0,0,.729,0,3.322,3.322,0,0,0,.909-.2.8.8,0,0,1,.163-.044.5.5,0,0,1,.511.472.418.418,0,0,1-.054.248,23.559,23.559,0,0,0-2.3,7.558c-.067.51-.168,1.507-.168,1.507a1.386,1.386,0,0,1-.864,1.255c-.564.323-1.424.322-1.464-.145a.654.654,0,0,0,.009-.076c.187-1.884,2.163-6.911,2.716-8.249a.116.116,0,0,0,.01-.062c-.005-.06-.038-.088-.083-.084a.114.114,0,0,0-.1.069c-.648,1.286-2.47,4.814-3.646,5.614" transform="translate(-20.75 -78.873)" fill="#fff"/>
    <path id="Path_5894" data-name="Path 5894" d="M82.624,123.544c.226-.02.525.106.545.333a.282.282,0,0,1-.046.171c-.822,1.559-2.183,4.44-3.246,4.972a1.234,1.234,0,0,1-.459.131,1.322,1.322,0,0,1-1.474-1.072v-.015a4.112,4.112,0,0,1,.32-1.576.454.454,0,0,0,.03-.185.108.108,0,0,0-.116-.111.286.286,0,0,0-.2.154,23.365,23.365,0,0,1-1.868,3.168,1.7,1.7,0,0,1-1.162.617,1.676,1.676,0,0,1-1.827-1.467,1.919,1.919,0,0,1,.058-.567c.58-2.252,2.716-5.655,4.384-6.027.045,0,.089-.023.134-.027.6-.052.967.478,1.4.547a.418.418,0,0,0,.137,0c.166-.014.338-.135.747-.49a.85.85,0,0,1,.468-.207,1.147,1.147,0,0,1,1.141.9.47.47,0,0,1-.107.343,9.125,9.125,0,0,0-1.883,4.4c.012.136.063.207.139.2.657-.133,2.029-2.878,2.683-4.1a.245.245,0,0,1,.2-.094m-4.3-.054c-.02-.226-.082-.418-.236-.45l-.03,0c-.6.052-3.184,4.982-3.122,5.705.005.06.023.089.068.085.467-.04,2.874-3.816,3.266-4.731a1.741,1.741,0,0,0,.053-.612" transform="translate(-58.205 -97.034)" fill="#fff"/>
    <path id="Path_5895" data-name="Path 5895" d="M112.965,97.331a2.616,2.616,0,0,1,1.9-1.227,1.557,1.557,0,0,1,1.71.991l.007.075a.445.445,0,0,1-.218.459c-1.929.516-3.485,2.9-4.989,5.882a.2.2,0,0,0-.036.109.085.085,0,0,0,.1.068.231.231,0,0,0,.115-.071,22.393,22.393,0,0,1,2.267-2.944,1.9,1.9,0,0,1,1.127-.492,1.478,1.478,0,0,1,1.7,1.265,1.639,1.639,0,0,1-.007.274c-.1,1.436-1.781,5.225-3.452,6.448a2.038,2.038,0,0,1-1,.39,1.555,1.555,0,0,1-1.369-.55c-.153-.184-.265-.251-.385-.24-.256.022-.538.456-1.184,1.059a.906.906,0,0,1-.5.21c-.392.034-.8-.174-.834-.52a.577.577,0,0,1,.066-.294c1.35-2.834,2.849-7.807,4.982-10.891m1.7,4.226c-.618.053-3.686,4.084-3.58,5.32a.373.373,0,0,0,.179.319.2.2,0,0,0,.138.018c.934-.081,3.521-4.419,3.433-5.444a.219.219,0,0,0-.14-.216Z" transform="translate(-85.908 -76.5)" fill="#fff"/>
    <path id="Path_5896" data-name="Path 5896" d="M152.439,120.764a1.421,1.421,0,0,1-.532.167,1.321,1.321,0,0,1-1.463-1.119l0-.03a5.79,5.79,0,0,1,.5-2.093c0-.015.012-.031.011-.046a.117.117,0,0,0-.13-.1.131.131,0,0,0-.086.053c-.47.891-1.564,3.521-2.355,4.212a1.649,1.649,0,0,1-.966.417,1.747,1.747,0,0,1-1.923-1.352v-.015c-.089-1.556,1.414-4.374,2.163-5.547a.508.508,0,0,1,.406-.217c.512-.044,1.294.39,1.338.9a.6.6,0,0,1-.092.342c-1.425,2.31-2.128,4.025-2.086,4.508.005.06.008.091.041.118a.163.163,0,0,0,.093.022c.392-.034,1.4-1.775,4.634-7.536a.52.52,0,0,1,.449-.251c.588-.051,1.479.419,1.524.946a.466.466,0,0,1-.052.278,18.9,18.9,0,0,0-1.9,5.053.146.146,0,0,0,.072.131.225.225,0,0,0,.107.006c.362-.031.991-.829,2.707-3.65a.346.346,0,0,1,.273-.175.444.444,0,0,1,.468.324.229.229,0,0,1-.046.171c-.894,1.611-2.182,3.923-3.152,4.478" transform="translate(-115.819 -90.114)" fill="#fff"/>
    <path id="Path_5897" data-name="Path 5897" d="M192.757,111.858a.662.662,0,0,1,.632.462.182.182,0,0,1-.02.123,24.819,24.819,0,0,1-2.271,4.129,1.465,1.465,0,0,1-1.031.544,1.892,1.892,0,0,1-2.027-1.5.8.8,0,0,1,0-.2,15.946,15.946,0,0,1,1.187-3.671.113.113,0,0,0,.01-.062.111.111,0,0,0-.131-.11.2.2,0,0,0-.1.054,31.432,31.432,0,0,0-3.554,6.152.857.857,0,0,1-.76.521c-.573.05-1.256-.3-1.3-.784a.418.418,0,0,1,0-.137,29.464,29.464,0,0,1,1.935-5.907.661.661,0,0,1,.587-.415c.512-.044,1.153.341,1.189.763a.5.5,0,0,1-.054.248,32.049,32.049,0,0,0-1.671,3.333.294.294,0,0,0-.006.107c.007.075.04.118.1.113s.117-.056.169-.152c.723-1.474,2.566-4.928,3.464-5.78a1.009,1.009,0,0,1,.6-.249,1.606,1.606,0,0,1,1.7,1.22.991.991,0,0,1-.057.4c-.161.424-1.686,3.866-1.616,4.679.008.09.043.148.1.158l.03,0c.558-.048,2.592-3.746,2.657-3.873a.246.246,0,0,1,.228-.172" transform="translate(-145.989 -87.124)" fill="#fff"/>
    <path id="Path_5898" data-name="Path 5898" d="M204.435,160.347l-.094,0a.436.436,0,0,0,.094,0" transform="translate(-162.669 -127.647)" fill="#918f8f"/>
    <rect id="Rectangle_11341" data-name="Rectangle 11341" width="0.863" height="0.862" transform="translate(29.137 39.31)" fill="#f6a608"/>
    <rect id="Rectangle_11342" data-name="Rectangle 11342" width="0.86" height="0.862" transform="translate(30.151 38.313)" fill="#f6a608"/>
    <rect id="Rectangle_11343" data-name="Rectangle 11343" width="0.862" height="0.862" transform="translate(31.155 37.334)" fill="#f6a608"/>
    <rect id="Rectangle_11344" data-name="Rectangle 11344" width="0.857" height="0.861" transform="translate(28.127 36.327)" fill="#f6a608"/>
    <rect id="Rectangle_11345" data-name="Rectangle 11345" width="0.857" height="0.861" transform="translate(30.162 36.327)" fill="#f6a608"/>
    <rect id="Rectangle_11346" data-name="Rectangle 11346" width="0.863" height="0.862" transform="translate(29.137 35.334)" fill="#f6a608"/>
    <rect id="Rectangle_11347" data-name="Rectangle 11347" width="0.862" height="0.862" transform="translate(36.228 35.334)" fill="#f6a608"/>
    <rect id="Rectangle_11348" data-name="Rectangle 11348" width="0.86" height="0.862" transform="translate(30.151 34.34)" fill="#f6a608"/>
    <rect id="Rectangle_11349" data-name="Rectangle 11349" width="0.863" height="0.862" transform="translate(31.162 34.34)" fill="#f6a608"/>
    <rect id="Rectangle_11350" data-name="Rectangle 11350" width="0.862" height="0.862" transform="translate(35.213 34.34)" fill="#f6a608"/>
    <rect id="Rectangle_11351" data-name="Rectangle 11351" width="0.86" height="0.863" transform="translate(30.151 33.346)" fill="#f6a608"/>
    <rect id="Rectangle_11352" data-name="Rectangle 11352" width="0.863" height="0.863" transform="translate(31.162 35.333)" fill="#f6a608"/>
    <rect id="Rectangle_11353" data-name="Rectangle 11353" width="0.862" height="0.863" transform="translate(32.176 33.346)" fill="#f6a608"/>
    <rect id="Rectangle_11354" data-name="Rectangle 11354" width="0.862" height="0.863" transform="translate(32.176 34.338)" fill="#f6a608"/>
    <rect id="Rectangle_11355" data-name="Rectangle 11355" width="0.862" height="0.863" transform="translate(32.176 36.33)" fill="#f6a608"/>
    <rect id="Rectangle_11356" data-name="Rectangle 11356" width="0.866" height="0.863" transform="translate(33.187 33.346)" fill="#f6a608"/>
    <rect id="Rectangle_11357" data-name="Rectangle 11357" width="0.866" height="0.863" transform="translate(33.181 32.314)" fill="#f6a608"/>
    <rect id="Rectangle_11358" data-name="Rectangle 11358" width="0.866" height="0.863" transform="translate(36.228 32.314)" fill="#f6a608"/>
    <rect id="Rectangle_11359" data-name="Rectangle 11359" width="0.862" height="0.863" transform="translate(35.213 33.346)" fill="#f6a608"/>
    <rect id="Rectangle_11360" data-name="Rectangle 11360" width="0.862" height="0.862" transform="translate(34.2 34.34)" fill="#f6a608"/>
    <rect id="Rectangle_11361" data-name="Rectangle 11361" width="0.862" height="0.862" transform="translate(28.122 41.172)" fill="#f6a608"/>
    <rect id="Rectangle_11362" data-name="Rectangle 11362" width="0.862" height="0.862" transform="translate(36.228 31.26)" fill="#f6a608"/>
    <path id="Path_5899" data-name="Path 5899" d="M79.185,173.032a2.037,2.037,0,0,1-.659,1.623,2.989,2.989,0,0,1-2.006.574h-3.4v-6.816H76.54a3.1,3.1,0,0,1,1.9.459,1.577,1.577,0,0,1,.583,1.317,1.279,1.279,0,0,1-.248.849,2.131,2.131,0,0,1-.6.488,1.657,1.657,0,0,1,.75.559,1.581,1.581,0,0,1,.263.948M77.1,170.443a.577.577,0,0,0-.132-.383.612.612,0,0,0-.486-.157H75v1.081H76.48a.639.639,0,0,0,.481-.147.554.554,0,0,0,.137-.393m.162,2.624a.651.651,0,0,0-.173-.477.709.709,0,0,0-.527-.175H75v1.324h1.55a.63.63,0,0,0,.709-.672" transform="translate(-58.205 -134.068)" fill="#fff"/>
    <rect id="Rectangle_11363" data-name="Rectangle 11363" width="2.006" height="6.816" transform="translate(21.78 34.345)" fill="#fff"/>
    <path id="Path_5900" data-name="Path 5900" d="M196.892,172.718a2.148,2.148,0,0,1-.218,1,1.827,1.827,0,0,1-.608.682,2.782,2.782,0,0,1-.927.389,5.131,5.131,0,0,1-1.175.127,5.638,5.638,0,0,1-1.647-.239,5.542,5.542,0,0,1-1.342-.589l.952-1.48a3.617,3.617,0,0,0,.451.248,5.461,5.461,0,0,0,.537.219,4.341,4.341,0,0,0,.562.156,2.609,2.609,0,0,0,.527.059,1.838,1.838,0,0,0,.724-.1.348.348,0,0,0,.2-.341.3.3,0,0,0-.056-.175.554.554,0,0,0-.193-.151,2.208,2.208,0,0,0-.37-.146q-.233-.073-.588-.151a10.676,10.676,0,0,1-1.115-.312,2.689,2.689,0,0,1-.79-.414,1.578,1.578,0,0,1-.471-.6,2.115,2.115,0,0,1-.157-.867,1.921,1.921,0,0,1,.76-1.558,2.7,2.7,0,0,1,.881-.438,4,4,0,0,1,1.155-.156,5.481,5.481,0,0,1,1.586.2,4.636,4.636,0,0,1,1.241.584l-.953,1.48a4.365,4.365,0,0,0-.952-.477,3.1,3.1,0,0,0-1.023-.165,1,1,0,0,0-.588.117.373.373,0,0,0-.142.3.272.272,0,0,0,.056.17.507.507,0,0,0,.187.136,2.257,2.257,0,0,0,.355.126q.223.064.567.141a9.093,9.093,0,0,1,1.155.341,2.926,2.926,0,0,1,.8.438,1.57,1.57,0,0,1,.466.6,2.069,2.069,0,0,1,.152.828" transform="translate(-152.029 -133.65)" fill="#fff"/>
    <rect id="Rectangle_11364" data-name="Rectangle 11364" width="0.866" height="0.861" transform="translate(33.187 36.327)" fill="#fff"/>
    <rect id="Rectangle_11365" data-name="Rectangle 11365" width="0.86" height="0.862" transform="translate(30.151 35.334)" fill="#fff"/>
    <rect id="Rectangle_11366" data-name="Rectangle 11366" width="0.866" height="0.862" transform="translate(33.187 35.334)" fill="#fff"/>
    <path id="Path_5901" data-name="Path 5901" d="M161.646,168.294v.868h.915v1.151h-.915V172.2a1.676,1.676,0,0,1-.258.993.958.958,0,0,1-.836.36.985.985,0,0,1-.846-.36,1.629,1.629,0,0,1-.269-.993v-.891h-2l-.005.891a3.675,3.675,0,0,0,.233,1.383,2.4,2.4,0,0,0,1.621,1.47,4.4,4.4,0,0,0,1.236.165,4.453,4.453,0,0,0,1.241-.165,2.589,2.589,0,0,0,.993-.531,2.471,2.471,0,0,0,.658-.94,3.607,3.607,0,0,0,.238-1.383v-3.9Z" transform="translate(-125.326 -133.973)" fill="#fff"/>
    <rect id="Rectangle_11367" data-name="Rectangle 11367" width="0.866" height="0.862" transform="translate(33.187 34.34)" fill="#fff"/>
    <rect id="Rectangle_11368" data-name="Rectangle 11368" width="0.863" height="0.863" transform="translate(29.137 34.348)" fill="#fff"/>
    <rect id="Rectangle_11369" data-name="Rectangle 11369" width="0.862" height="0.863" transform="translate(32.176 35.338)" fill="#fff"/>
    <path id="Path_5902" data-name="Path 5902" d="M127.8,171.4h-1V170.4h-.884v.345q0,.263.01.511t.02.458a2.831,2.831,0,0,0,.03.326q-.061-.107-.192-.312c-.081-.126-.1-.179-.2-.321h-.812v-1.051l-1.458-1.938h-1.733v6.816h1.885v-2.551q0-.263-.01-.511t-.02-.458a2.822,2.822,0,0,0-.03-.326q.071.117.208.321t.294.433q.157.229.319.458t.284.385l1.692,2.249h1.6v-1.851h-.865v.992h-1.166v-1.127h1.03v-.979h1Z" transform="translate(-96.787 -134.069)" fill="#fff"/>
    <path id="Path_5903" data-name="Path 5903" d="M223.187,103.4a.9.9,0,0,0-1-.733.818.818,0,0,0-.369.123c-.375.23-.688.819-1.019.862l-.045,0c-.467.04-.865-.351-1.483-.3a1.433,1.433,0,0,0-.417.1c-1.469.567-3.394,3.952-3.668,5.707a1.135,1.135,0,0,0-.019.305,1.594,1.594,0,0,0,1.751,1.291,1.307,1.307,0,0,0,.69-.272,21.872,21.872,0,0,0,3.01-4.709c.038-.077.079-.112.137-.118a.144.144,0,0,1,.152.134.143.143,0,0,1-.008.081c-.128.346-.64,2.321-1.227,3.873l-.747,1.813c-.8,2.072-1.837,3.731-2.827,4.079a1.294,1.294,0,0,1-.363.063c-.349.011-.566-.218-.7-.572a4.067,4.067,0,0,1,.431-2.847.239.239,0,0,0,.011-.2c-.05-.143-.245-.158-.457-.16a1.935,1.935,0,0,0-1.79,1.808,2.623,2.623,0,0,0,.118,1.2,2.5,2.5,0,0,0,3.393,1.533,5.453,5.453,0,0,0,2.242-1.558,16.3,16.3,0,0,0,2.992-6.4l.1-.361c.615-2.192,1.116-4.714,1.113-4.757m-6.065,5.731a.078.078,0,0,1-.063-.025c0-.015-.018-.029-.019-.044-.051-.588,2.1-4.661,2.8-4.721l.03,0a.136.136,0,0,1,.118.142c.07.814-2.4,4.61-2.863,4.65" transform="translate(-169.726 -81.729)" fill="#fff"/>
  </g>
</svg>
